<svg xmlns="http://www.w3.org/2000/svg" viewBox="0 0 64 64" role="img" aria-label="临渊行">
  <rect width="64" height="64" rx="10" fill="#050607"/>
  <rect x="12" y="12" width="40" height="40" rx="3" fill="none" stroke="#e5e1d6" stroke-width="3"/>
  <rect x="17" y="17" width="30" height="30" rx="2" fill="none" stroke="#bfc6c7" stroke-width="1.8"/>
  <path d="M21 22h13M27.5 22v14M21 29h13M22 41c3 2.6 9 2.6 12 0" fill="none" stroke="#eee9dc" stroke-width="2.4" stroke-linecap="square" stroke-linejoin="miter"/>
  <path d="M38 21h7M38 28h6M38 35h7M38 21v22M45 28v10c0 3-2.3 5-6 5" fill="none" stroke="#eee9dc" stroke-width="2.4" stroke-linecap="square" stroke-linejoin="miter"/>
  <path d="M32 6l3 6-3 6-3-6zM32 46l3 6-3 6-3-6z" fill="#061015" stroke="#85a9bb" stroke-width="1.8"/>
  <path d="M8 32l3-3 3 3-3 3zM50 32l3-3 3 3-3 3z" fill="#8fb5c6"/>
</svg>
